<?xml version="1.0" encoding="UTF-8"?><svg id="a" xmlns="http://www.w3.org/2000/svg" viewBox="0 0 155.6 116.91"><defs><style>.b{fill:#1a1a1a;}</style></defs><path class="b" d="M72.81,22.67S61.28-.57,23.96.01c-2.74.04-4.95,2.27-4.95,5v83.3c0,2.82,2.32,5.07,5.14,5,9.92-.25,32.17,1.25,48.66,17.74"/><path class="b" d="M16.46,99.17c-2.82.07-5.14-2.18-5.14-5V18.68h-6.33c-2.76,0-5,2.24-5,5v88.23c0,3.15,2.88,5.52,5.97,4.91,8.25-1.64,23.22-4.28,32.89-4,13.39.39,12.23-.16,24.7,2.6-16.31-15.08-37.49-16.49-47.1-16.24Z"/><path class="b" d="M82.79,22.67S94.31-.57,131.63.01c2.74.04,4.95,2.27,4.95,5v83.3c0,2.82-2.32,5.07-5.14,5-9.92-.25-32.17,1.25-48.66,17.74"/><path class="b" d="M139.13,99.17c2.82.07,5.14-2.18,5.14-5V18.68h6.33c2.76,0,5,2.24,5,5v88.23c0,3.15-2.88,5.52-5.97,4.91-8.25-1.64-23.22-4.28-32.89-4-13.39.39-12.23-.16-24.7,2.6,16.31-15.08,37.49-16.49,47.1-16.24Z"/></svg>