<?xml version="1.0" encoding="UTF-8"?><svg id="a" xmlns="http://www.w3.org/2000/svg" viewBox="0 0 468 468"><defs><style>.b{fill:#fff;}.c{isolation:isolate;}</style></defs><g class="c"><g class="c"><path class="b" d="M21.6,98.6v-14.8c0-19.2,12.7-30.5,31.2-30.5s30.9,10.6,31.1,30.5v13.1h-47.6v2.1c0,12.4,6.8,16.7,16.5,16.7s15-3.2,16-10.9h14.8c-1.4,15.4-14,24.3-30.8,24.3s-31.2-11.3-31.2-30.5ZM69.2,84.7v-1.8c-.1-11-7.1-16.1-16.4-16.1s-16.5,4.8-16.5,16.1v1.8h32.9Z"/><path class="b" d="M100.1,54.5h14.8v6.8c2.8-3.8,7.5-6.8,17.1-6.8h9v14.5h-9c-10.6,0-17.1,5.8-17.1,18.6v40.1h-14.8V54.5Z"/></g></g><g class="c"><g class="c"><path class="b" d="M28.2,317.7v-14.8c0-19.2,12.7-30.5,31.2-30.5s30.9,10.6,31.1,30.5v13.1h-47.6v2.1c0,12.4,6.8,16.7,16.5,16.7s15-3.2,16-10.9h14.8c-1.4,15.4-14,24.3-30.8,24.3s-31.2-11.3-31.2-30.5h0ZM75.8,303.8v-1.8c-.1-11-7.1-16.1-16.4-16.1s-16.5,4.8-16.5,16.1v1.8h32.9Z"/><path class="b" d="M103.2,317.7v-14.8c0-19.2,12.7-30.5,31.2-30.5s30.9,10.6,31.1,30.5v13.1h-47.6v2.1c0,12.4,6.8,16.7,16.5,16.7s15-3.2,16-10.9h14.8c-1.4,15.4-14,24.3-30.8,24.3s-31.2-11.3-31.2-30.5h0ZM150.8,303.8v-1.8c-.1-11-7.1-16.1-16.4-16.1s-16.5,4.8-16.5,16.1v1.8h32.9,0Z"/><path class="b" d="M181.7,273.6h14.8v5.6c3.5-4,9.6-6.9,18.9-6.9,16,0,27.4,10.2,27.4,26.7v47.9h-14.8v-44.6c0-9.3-4.7-15.8-15.7-15.8s-15.8,5.4-15.8,15.8v44.6h-14.8v-73.3h0Z"/><path class="b" d="M256.9,322.3h14.8c0,7.2,5.5,11.9,15.7,11.9s15-4,15-8.6-2.3-6.5-8.3-7.8l-15.8-3.1c-10.7-2-18.4-8.8-18.4-20.5s10.4-21.9,27.7-21.9,28.5,10.3,28.5,24h-14.5c-.3-6.6-6.1-10.4-14-10.4s-12.7,3.7-12.7,8,3.1,6.2,7.8,7.2l15.5,3c13.8,2.5,19.6,10.9,19.6,21s-11,23-30.4,23-30.1-8.8-30.5-25.8h0Z"/><path class="b" d="M363.4,328.9h17.2v17.9h-17.2v-17.9Z"/><path class="b" d="M396.9,328.9h17.2v17.9h-17.2v-17.9Z"/><path class="b" d="M430.3,328.9h17.2v17.9h-17.2v-17.9Z"/></g></g><g class="c"><g class="c"><path class="b" d="M72.2,165.4l-10.7,69.8h-28.1l-13.7-73.3h16.5l11.4,69.8,10.4-69.8h28.4l10.4,69.8,11.4-69.8h16.4l-13.7,73.3h-28.1l-10.7-69.8h.1Z"/></g><g class="c"><path class="b" d="M134.5,205.5v-14c0-19.2,11.3-30.9,29.8-30.9s13.1,2,17.7,5.5v-4.2h14.8v73.3h-14.8v-4.2c-4.5,3.5-10.4,5.5-17.7,5.5-18.5,0-29.8-11.7-29.8-30.9v-.1ZM165.7,222.4c9.7,0,16.2-4.2,16.2-16.8v-14c0-11.2-6.5-16.8-16.2-16.8s-16.4,5.6-16.4,16.8v14c0,12.6,6.2,16.8,16.4,16.8Z"/><path class="b" d="M210.8,210.6h14.8c0,7.2,5.5,11.9,15.7,11.9s15-4,15-8.6-2.3-6.5-8.3-7.8l-15.8-3.1c-10.7-2-18.4-8.8-18.4-20.5s10.4-21.9,27.7-21.9,28.5,10.3,28.5,24h-14.5c-.3-6.6-6.1-10.4-14-10.4s-12.7,3.7-12.7,8,3.1,6.2,7.8,7.2l15.5,3c13.8,2.5,19.6,10.9,19.6,21s-11,23-30.4,23-30.1-8.8-30.5-25.8h0Z"/></g></g><g class="c"><g class="c"><path class="b" d="M23.7,425.8h4.5c.2,3.1,2.2,5.1,6.1,5.1s5.9-1.6,5.9-4-1.4-3.3-3.9-3.9l-4.3-1c-4.3-1.1-7.1-3.3-7.1-7.6s3.6-7.9,9.6-7.9,9.9,3.7,9.9,8.6h-4.5c-.1-2.5-1.9-4.5-5.5-4.5s-5.1,1.6-5.1,3.7,1.3,2.9,3.9,3.5l4.3,1.1c4.8,1.2,7.2,3.8,7.2,8s-4.4,8.1-10.4,8.1-10.4-3.8-10.5-9.2h-.1Z"/><path class="b" d="M50,406.8h11c5.2,0,8.4,3.1,8.4,7.8s-3.6,8-8.6,8h-6.4v12.1h-4.4v-27.9ZM60.4,418.5c2.8,0,4.5-1,4.5-3.8s-1.7-3.8-4.5-3.8h-6v7.6h6Z"/><path class="b" d="M75.1,406.8h11.2c5.2,0,8.4,3.1,8.4,7.8s-3,8-8.4,8h-5.8l15.7,12.1h-7.3l-9.4-7.5v7.5h-4.4v-27.9h0ZM85.7,418.5c2.8,0,4.5-1,4.5-3.8s-1.7-3.8-4.5-3.8h-6.2v7.6h6.2Z"/><path class="b" d="M99.4,423.1v-4.8c0-7.6,4.4-11.9,11.4-11.9s11.4,4.3,11.4,11.9v4.8c0,7.6-4.4,11.9-11.4,11.9s-11.4-4.3-11.4-11.9ZM110.7,430.9c4.7,0,6.9-2.9,6.9-7.7v-4.8c0-4.9-2.2-7.6-6.9-7.6s-6.9,2.7-6.9,7.6v4.8c0,4.9,2.2,7.7,6.9,7.7Z"/><path class="b" d="M126.1,423.1v-4.8c0-7.6,4.4-11.9,11.4-11.9s11.4,4.3,11.4,11.9v4.8c0,7.6-4.4,11.9-11.4,11.9s-11.4-4.3-11.4-11.9ZM137.5,430.9c4.7,0,6.9-2.9,6.9-7.7v-4.8c0-4.9-2.2-7.6-6.9-7.6s-6.9,2.7-6.9,7.6v4.8c0,4.9,2.2,7.7,6.9,7.7Z"/></g><g class="c"><path class="b" d="M159.7,425.2v9.5h-4.5v-27.9h4.5v9l10-9h5.9l-14.9,13.6,15.3,14.3h-6.3l-10-9.5Z"/></g><g class="c"><path class="b" d="M176.2,426.1h4.3c0,3.2,2.3,4.7,5.4,4.7s5.4-2.2,5.4-5v-15h-10v-4.1h14.5v19.1c0,5.4-4,9.2-9.9,9.2s-9.7-3.2-9.7-8.9h0Z"/><path class="b" d="M201.7,406.8h17.9v4.1h-13.4v7.4h12.2v4.1h-12.2v8.2h13.4v4.1h-17.9v-27.9h0Z"/><path class="b" d="M223.2,425.8h4.5c.2,3.1,2.2,5.1,6.1,5.1s5.9-1.6,5.9-4-1.4-3.3-3.9-3.9l-4.3-1c-4.3-1.1-7.1-3.3-7.1-7.6s3.6-7.9,9.6-7.9,9.9,3.7,9.9,8.6h-4.5c-.1-2.5-1.9-4.5-5.5-4.5s-5.1,1.6-5.1,3.7,1.3,2.9,3.9,3.5l4.3,1.1c4.8,1.2,7.2,3.8,7.2,8s-4.4,8.1-10.4,8.1-10.4-3.8-10.5-9.2h-.1Z"/><path class="b" d="M249.5,406.8h11c5.2,0,8.4,3.1,8.4,7.8s-3.6,8-8.6,8h-6.4v12.1h-4.4v-27.9ZM260,418.5c2.8,0,4.5-1,4.5-3.8s-1.7-3.8-4.5-3.8h-6v7.6h6Z"/><path class="b" d="M274.6,406.8h4.5v23.7h12.4v4.1h-16.9v-27.9.1Z"/></g><g class="c"><path class="b" d="M311.6,427.9h-11.4l-1.9,6.8h-4.7l8.1-27.9h8.4l8,27.9h-4.7l-1.9-6.8h.1ZM310.4,423.7l-4.5-15.9-4.5,15.9h9Z"/></g><g class="c"><path class="b" d="M325.5,411h-8.2v-4.1h20.8v4.1h-8.2v23.7h-4.5v-23.7h.1Z"/><path class="b" d="M342.7,406.8h17.9v4.1h-13.4v8h12.2v4.1h-12.2v11.7h-4.5v-27.9h0Z"/><path class="b" d="M364.6,423.1v-4.8c0-7.6,4.4-11.9,11.4-11.9s11.4,4.3,11.4,11.9v4.8c0,7.6-4.4,11.9-11.4,11.9s-11.4-4.3-11.4-11.9ZM375.9,430.9c4.7,0,6.9-2.9,6.9-7.7v-4.8c0-4.9-2.2-7.6-6.9-7.6s-6.9,2.7-6.9,7.6v4.8c0,4.9,2.2,7.7,6.9,7.7Z"/><path class="b" d="M392.9,406.8h11.2c5.2,0,8.4,3.1,8.4,7.8s-3,8-8.4,8h-5.8l15.7,12.1h-7.3l-9.4-7.5v7.5h-4.4v-27.9h0ZM403.5,418.5c2.8,0,4.5-1,4.5-3.8s-1.7-3.8-4.5-3.8h-6.2v7.6h6.2Z"/><path class="b" d="M423.1,407.8v26.9h-4.3v-27.9h8.3l6,26.9,6-26.9h8.3v27.9h-4.3v-26.9l-5.7,26.9h-8.4l-5.7-26.9h-.2Z"/></g></g><rect class="b" x="21.6" y="368.3" width="430" height="8"/></svg>