<?xml version="1.0" encoding="UTF-8" standalone="no"?>
<!DOCTYPE svg PUBLIC "-//W3C//DTD SVG 1.1//EN" "http://www.w3.org/Graphics/SVG/1.1/DTD/svg11.dtd">
<svg width="100%" height="100%" viewBox="0 0 937 306" version="1.1" xmlns="http://www.w3.org/2000/svg" xmlns:xlink="http://www.w3.org/1999/xlink" xml:space="preserve" xmlns:serif="http://www.serif.com/" style="fill-rule:evenodd;clip-rule:evenodd;stroke-linejoin:round;stroke-miterlimit:2;">
    <g>
        <g>
            <g>
                <path d="M21.6,98.6L21.6,83.8C21.6,64.6 34.3,53.3 52.8,53.3C71.3,53.3 83.7,63.9 83.9,83.8L83.9,96.9L36.3,96.9L36.3,99C36.3,111.4 43.1,115.7 52.8,115.7C62.5,115.7 67.8,112.5 68.8,104.8L83.6,104.8C82.2,120.2 69.6,129.1 52.8,129.1C36,129.1 21.6,117.8 21.6,98.6ZM69.2,84.7L69.2,82.9C69.1,71.9 62.1,66.8 52.8,66.8C43.5,66.8 36.3,71.6 36.3,82.9L36.3,84.7L69.2,84.7Z" style="fill:white;fill-rule:nonzero;"/>
                <path d="M100.1,54.5L114.9,54.5L114.9,61.3C117.7,57.5 122.4,54.5 132,54.5L141,54.5L141,69L132,69C121.4,69 114.9,74.8 114.9,87.6L114.9,127.7L100.1,127.7L100.1,54.5Z" style="fill:white;fill-rule:nonzero;"/>
            </g>
            <g>
                <path d="M234.4,58L223.7,127.8L195.6,127.8L181.9,54.5L198.4,54.5L209.8,124.3L220.2,54.5L248.6,54.5L259,124.3L270.4,54.5L286.8,54.5L273.1,127.8L245,127.8L234.3,58L234.4,58Z" style="fill:white;fill-rule:nonzero;"/>
            </g>
            <g>
                <path d="M296.7,98.2L296.7,84.1C296.7,64.9 308,53.2 326.5,53.2C345,53.2 339.6,55.2 344.2,58.7L344.2,54.5L359,54.5L359,127.8L344.2,127.8L344.2,123.6C339.7,127.1 333.8,129.1 326.5,129.1C308,129.1 296.7,117.4 296.7,98.2ZM327.9,115C337.6,115 344.1,110.8 344.1,98.2L344.1,84.2C344.1,73 337.6,67.4 327.9,67.4C318.2,67.4 311.5,73 311.5,84.2L311.5,98.2C311.5,110.8 317.7,115 327.9,115Z" style="fill:white;fill-rule:nonzero;"/>
                <path d="M373.1,103.2L387.9,103.2C387.9,110.4 393.4,115.1 403.6,115.1C413.8,115.1 418.6,111.1 418.6,106.5C418.6,101.9 416.3,100 410.3,98.7L394.5,95.6C383.8,93.6 376.1,86.8 376.1,75.1C376.1,63.4 386.5,53.2 403.8,53.2C421.1,53.2 432.3,63.5 432.3,77.2L417.8,77.2C417.5,70.6 411.7,66.8 403.8,66.8C395.9,66.8 391.1,70.5 391.1,74.8C391.1,79.1 394.2,81 398.9,82L414.4,85C428.2,87.5 434,95.9 434,106C434,116.1 423,129 403.6,129C384.2,129 373.5,120.2 373.1,103.2Z" style="fill:white;fill-rule:nonzero;"/>
                <path d="M477.7,98.6L477.7,83.8C477.7,64.6 490.4,53.3 508.9,53.3C527.4,53.3 539.8,63.9 540,83.8L540,96.9L492.4,96.9L492.4,99C492.4,111.4 499.2,115.7 508.9,115.7C518.6,115.7 523.9,112.5 524.9,104.8L539.7,104.8C538.3,120.2 525.7,129.1 508.9,129.1C492.1,129.1 477.7,117.8 477.7,98.6ZM525.3,84.7L525.3,82.9C525.2,71.9 518.2,66.8 508.9,66.8C499.6,66.8 492.4,71.6 492.4,82.9L492.4,84.7L525.3,84.7Z" style="fill:white;fill-rule:nonzero;"/>
                <path d="M552.7,98.6L552.7,83.8C552.7,64.6 565.4,53.3 583.9,53.3C602.4,53.3 614.8,63.9 615,83.8L615,96.9L567.4,96.9L567.4,99C567.4,111.4 574.2,115.7 583.9,115.7C593.6,115.7 598.9,112.5 599.9,104.8L614.7,104.8C613.3,120.2 600.7,129.1 583.9,129.1C567.1,129.1 552.7,117.8 552.7,98.6ZM600.3,84.7L600.3,82.9C600.2,71.9 593.2,66.8 583.9,66.8C574.6,66.8 567.4,71.6 567.4,82.9L567.4,84.7L600.3,84.7Z" style="fill:white;fill-rule:nonzero;"/>
                <path d="M631.2,54.5L646,54.5L646,60.1C649.5,56.1 655.6,53.2 664.9,53.2C680.9,53.2 692.3,63.4 692.3,79.9L692.3,127.8L677.5,127.8L677.5,83.2C677.5,73.9 672.8,67.4 661.8,67.4C650.8,67.4 646,72.8 646,83.2L646,127.8L631.2,127.8L631.2,54.5Z" style="fill:white;fill-rule:nonzero;"/>
                <path d="M706.5,103.2L721.3,103.2C721.3,110.4 726.8,115.1 737,115.1C747.2,115.1 752,111.1 752,106.5C752,101.9 749.7,100 743.7,98.7L727.9,95.6C717.2,93.6 709.5,86.8 709.5,75.1C709.5,63.4 719.9,53.2 737.2,53.2C754.5,53.2 765.7,63.5 765.7,77.2L751.2,77.2C750.9,70.6 745.1,66.8 737.2,66.8C729.3,66.8 724.5,70.5 724.5,74.8C724.5,79.1 727.6,81 732.3,82L747.8,85C761.6,87.5 767.4,95.9 767.4,106C767.4,116.1 756.4,129 737,129C717.6,129 706.9,120.2 706.5,103.2Z" style="fill:white;fill-rule:nonzero;"/>
                <rect x="812.9" y="109.9" width="17.2" height="17.9" style="fill:white;fill-rule:nonzero;"/>
                <rect x="846.4" y="109.9" width="17.2" height="17.9" style="fill:white;fill-rule:nonzero;"/>
                <rect x="879.9" y="109.9" width="17.2" height="17.9" style="fill:white;fill-rule:nonzero;"/>
            </g>
        </g>
        <g>
            <g>
                <path d="M25.3,242.7L33,242.7C33.3,248 36.8,251.6 43.5,251.6C50.2,251.6 53.7,248.8 53.7,244.7C53.7,240.6 51.4,239 47,238L39.6,236.2C32.1,234.3 27.4,230.6 27.4,223.1C27.4,215.6 33.7,209.4 44,209.4C54.3,209.4 61.1,215.8 61.2,224.3L53.5,224.3C53.3,220 50.2,216.5 43.9,216.5C37.6,216.5 35.1,219.2 35.1,222.9C35.1,226.6 37.4,227.9 41.8,229L49.2,230.9C57.5,233 61.6,237.4 61.6,244.8C61.6,252.2 54,258.8 43.6,258.8C33.2,258.8 25.6,252.3 25.4,242.8L25.3,242.7Z" style="fill:white;fill-rule:nonzero;"/>
                <path d="M70.8,209.9L89.9,209.9C98.8,209.9 104.5,215.3 104.5,223.5C104.5,231.7 98.3,237.3 89.6,237.3L78.5,237.3L78.5,258.1L70.9,258.1L70.9,209.9L70.8,209.9ZM88.8,230.1C93.6,230.1 96.5,228.4 96.5,223.5C96.5,218.6 93.6,216.9 88.8,216.9L78.4,216.9L78.4,230.1L88.8,230.1Z" style="fill:white;fill-rule:nonzero;"/>
                <path d="M114.1,209.9L133.5,209.9C142.4,209.9 148.1,215.3 148.1,223.5C148.1,231.7 142.9,237.3 133.5,237.3L123.5,237.3L150.6,258.1L138,258.1L121.7,245.1L121.7,258.1L114.1,258.1L114.1,209.9ZM132.4,230.1C137.2,230.1 140.1,228.4 140.1,223.5C140.1,218.6 137.2,216.9 132.4,216.9L121.7,216.9L121.7,230.1L132.4,230.1Z" style="fill:white;fill-rule:nonzero;"/>
                <path d="M156.1,238.1L156.1,229.8C156.1,216.7 163.7,209.2 175.8,209.2C187.9,209.2 195.5,216.6 195.5,229.8L195.5,238.1C195.5,251.2 187.9,258.7 175.8,258.7C163.7,258.7 156.1,251.3 156.1,238.1ZM175.8,251.4C183.9,251.4 187.8,246.4 187.8,238.1L187.8,229.8C187.8,221.3 183.9,216.6 175.8,216.6C167.7,216.6 163.9,221.3 163.9,229.8L163.9,238.1C163.9,246.5 167.8,251.4 175.8,251.4Z" style="fill:white;fill-rule:nonzero;"/>
                <path d="M202.3,238.1L202.3,229.8C202.3,216.7 209.9,209.2 222,209.2C234.1,209.2 241.7,216.6 241.7,229.8L241.7,238.1C241.7,251.2 234.1,258.7 222,258.7C209.9,258.7 202.3,251.3 202.3,238.1ZM222,251.4C230.1,251.4 234,246.4 234,238.1L234,229.8C234,221.3 230.1,216.6 222,216.6C213.9,216.6 210.1,221.3 210.1,229.8L210.1,238.1C210.1,246.5 214,251.4 222,251.4Z" style="fill:white;fill-rule:nonzero;"/>
            </g>
            <g>
                <path d="M260.4,241.7L260.4,258.1L252.7,258.1L252.7,209.9L260.4,209.9L260.4,225.5L277.7,209.9L287.9,209.9L262.1,233.4L288.6,258.1L277.7,258.1L260.4,241.7Z" style="fill:white;fill-rule:nonzero;"/>
            </g>
            <g>
                <path d="M288.9,243.3L296.4,243.3C296.4,248.8 300.4,251.5 305.8,251.5C311.2,251.5 315.1,247.7 315.1,242.9L315.1,217L297.8,217L297.8,209.9L322.8,209.9L322.8,242.8C322.8,252.2 315.9,258.6 305.7,258.6C295.5,258.6 289,253.1 289,243.2L288.9,243.3Z" style="fill:white;fill-rule:nonzero;"/>
                <path d="M333,209.9L364,209.9L364,217L340.8,217L340.8,229.7L361.8,229.7L361.8,236.7L340.8,236.7L340.8,250.9L364,250.9L364,258.1L333,258.1L333,209.9Z" style="fill:white;fill-rule:nonzero;"/>
                <path d="M370.2,242.7L377.9,242.7C378.2,248 381.7,251.6 388.4,251.6C395.1,251.6 398.6,248.8 398.6,244.7C398.6,240.6 396.3,239 391.9,238L384.5,236.2C377,234.3 372.3,230.6 372.3,223.1C372.3,215.6 378.6,209.4 388.9,209.4C399.2,209.4 406,215.8 406.1,224.3L398.4,224.3C398.2,220 395.1,216.5 388.8,216.5C382.5,216.5 380,219.2 380,222.9C380,226.6 382.3,227.9 386.7,229L394.1,230.9C402.4,233 406.5,237.4 406.5,244.8C406.5,252.2 398.9,258.8 388.5,258.8C378.1,258.8 370.5,252.3 370.3,242.8L370.2,242.7Z" style="fill:white;fill-rule:nonzero;"/>
                <path d="M415.7,209.9L434.8,209.9C443.7,209.9 449.4,215.3 449.4,223.5C449.4,231.7 443.2,237.3 434.5,237.3L423.4,237.3L423.4,258.1L415.8,258.1L415.8,209.9L415.7,209.9ZM433.7,230.1C438.5,230.1 441.4,228.4 441.4,223.5C441.4,218.6 438.5,216.9 433.7,216.9L423.3,216.9L423.3,230.1L433.7,230.1Z" style="fill:white;fill-rule:nonzero;"/>
                <path d="M459,209.9L466.8,209.9L466.8,250.9L488.3,250.9L488.3,258.1L459.1,258.1L459.1,209.9L459,209.9Z" style="fill:white;fill-rule:nonzero;"/>
            </g>
            <g>
                <path d="M523.1,246.3L503.3,246.3L500,258.1L492,258.1L506,209.9L520.6,209.9L534.4,258.1L526.4,258.1L523.1,246.3ZM520.9,239.1L513.1,211.7L505.3,239.1L520.9,239.1Z" style="fill:white;fill-rule:nonzero;"/>
            </g>
            <g>
                <path d="M547,217L532.9,217L532.9,209.8L568.8,209.8L568.8,217L554.7,217L554.7,258L547,258L547,217Z" style="fill:white;fill-rule:nonzero;"/>
                <path d="M576.7,209.9L607.7,209.9L607.7,217L584.5,217L584.5,230.9L605.5,230.9L605.5,237.9L584.5,237.9L584.5,258.1L576.7,258.1L576.7,209.9Z" style="fill:white;fill-rule:nonzero;"/>
                <path d="M614.6,238.1L614.6,229.8C614.6,216.7 622.2,209.2 634.3,209.2C646.4,209.2 654,216.6 654,229.8L654,238.1C654,251.2 646.4,258.7 634.3,258.7C622.2,258.7 614.6,251.3 614.6,238.1ZM634.2,251.4C642.3,251.4 646.2,246.4 646.2,238.1L646.2,229.8C646.2,221.3 642.3,216.6 634.2,216.6C626.1,216.6 622.3,221.3 622.3,229.8L622.3,238.1C622.3,246.5 626.2,251.4 634.2,251.4Z" style="fill:white;fill-rule:nonzero;"/>
                <path d="M663.6,209.9L683,209.9C691.9,209.9 697.6,215.3 697.6,223.5C697.6,231.7 692.4,237.3 683,237.3L673,237.3L700.1,258.1L687.5,258.1L671.2,245.1L671.2,258.1L663.6,258.1L663.6,209.9ZM681.9,230.1C686.7,230.1 689.6,228.4 689.6,223.5C689.6,218.6 686.7,216.9 681.9,216.9L671.2,216.9L671.2,230.1L681.9,230.1Z" style="fill:white;fill-rule:nonzero;"/>
                <path d="M715.8,211.6L715.8,258L708.3,258L708.3,209.8L722.6,209.8L733,256.2L743.4,209.8L757.7,209.8L757.7,258L750.2,258L750.2,211.6L740.3,258L725.7,258L715.8,211.6Z" style="fill:white;fill-rule:nonzero;"/>
            </g>
        </g>
        <rect x="22" y="167" width="881" height="8" style="fill:white;"/>
    </g>
</svg>
